<?xml version="1.0" encoding="utf-8"?>
<!-- Generator: Adobe Illustrator 27.5.0, SVG Export Plug-In . SVG Version: 6.00 Build 0)  -->
<svg version="1.1" id="Layer_1" xmlns="http://www.w3.org/2000/svg" xmlns:xlink="http://www.w3.org/1999/xlink" x="0px" y="0px"
	 viewBox="0 0 38.8 46.1" style="enable-background:new 0 0 38.8 46.1;" xml:space="preserve">
<style type="text/css">
	.st0{fill:#2966CC;stroke:#000000;stroke-width:15.1229;stroke-linecap:round;stroke-linejoin:round;stroke-miterlimit:10.0819;}
	.st1{fill:#2966CC;stroke:#FFFFFF;stroke-width:12.6024;stroke-linecap:round;stroke-linejoin:round;stroke-miterlimit:10.0819;}
	.st2{fill:#2966CC;stroke:#000000;stroke-width:2.5205;stroke-linecap:round;stroke-linejoin:round;stroke-miterlimit:10.0819;}
</style>
<g transform="translate(57.97339630126953,89.52191162109375)">
	<g transform="translate(0,0)">
		<g transform="scale(1.2600000000000002)">
			<g>
				<g>
					<path class="st0" d="M-19-67.3l-1.9,5.8h-15.5v5.8h13.5c2.6,0,3.9,1.3,3.9,3.8l0,0v9.7c0,2.6-1.3,3.9-3.9,3.9l0,0h-19.3v-5.8
						h17.4v-5.8h-13.5c-2.6,0-3.9-1.3-3.9-3.8l0,0v-9.7c0-2.6,1.3-3.9,3.9-3.9l0,0H-19z"/>
				</g>
				<g>
					<path class="st1" d="M-19-67.3l-1.9,5.8h-15.5v5.8h13.5c2.6,0,3.9,1.3,3.9,3.8l0,0v9.7c0,2.6-1.3,3.9-3.9,3.9l0,0h-19.3v-5.8
						h17.4v-5.8h-13.5c-2.6,0-3.9-1.3-3.9-3.8l0,0v-9.7c0-2.6,1.3-3.9,3.9-3.9l0,0H-19z"/>
				</g>
				<g>
					<path class="st2" d="M-19-67.3l-1.9,5.8h-15.5v5.8h13.5c2.6,0,3.9,1.3,3.9,3.8l0,0v9.7c0,2.6-1.3,3.9-3.9,3.9l0,0h-19.3v-5.8
						h17.4v-5.8h-13.5c-2.6,0-3.9-1.3-3.9-3.8l0,0v-9.7c0-2.6,1.3-3.9,3.9-3.9l0,0H-19z"/>
				</g>
			</g>
		</g>
	</g>
</g>
</svg>
