<svg xmlns="http://www.w3.org/2000/svg" xmlns:xlink="http://www.w3.org/1999/xlink" data-v-6805eed4="" version="1.0" preserveAspectRatio="xMidYMid meet" color-interpolation-filters="sRGB" style="margin: auto;" viewBox="54.97 86.52 230.05 73.96">
  <g data-v-6805eed4="" fill="#2966CC" class="basesvg" transform="translate(57.97339630126953,89.52191162109375)">
    <g fill-rule="" class="tp-name" transform="translate(0,0)">
      <g transform="scale(1.2600000000000002)">
        <g>
          <g transform="translate(0, 6)" fill-opacity="0">
            <path d="M23.19-29.01L21.28-23.21 5.8-23.21 5.8-17.39 19.33-17.39Q23.19-17.39 23.19-13.55L23.19-13.55 23.19-3.88Q23.19-0.02 19.33-0.02L19.33-0.02 0-0.02 0-5.8 17.39-5.82 17.39-11.62 3.87-11.62Q0-11.62 0-15.46L0-15.46 0-25.13Q0-29.01 3.87-29.01L3.87-29.01 23.19-29.01ZM27.06-3.87L27.06-17.39Q27.06-21.26 30.92-21.26L30.92-21.26 46.39-21.26Q50.25-21.26 50.25-17.39L50.25-17.39 50.25 0 44.45 0 44.43-15.46 32.86-15.46 32.86-5.8 42.52-5.8 40.59 0 30.94 0Q27.06 0 27.06-3.87L27.06-3.87ZM67.67 0L67.67-15.46 59.92-15.46 59.92 0 54.12 0 54.12-17.39Q54.12-21.26 57.98-21.26L57.98-21.26 83.11-21.26Q86.97-21.26 86.97-17.39L86.97-17.39 86.97 0 81.18 0 81.16-15.46 73.46-15.46 73.46 0 67.67 0ZM90.84-17.39L90.84-17.39Q90.84-21.26 94.71-21.26L94.71-21.26 110.17-21.26Q114.03-21.26 114.03-17.39L114.03-17.39 114.03-3.87Q114.03 0 110.17 0L110.17 0 98.57 0 100.5-5.8 108.24-5.8 108.24-15.46 96.64-15.46 96.64 7.73 90.84 7.73 90.84-17.39ZM123.7 0L117.9 0 117.9-28.99 123.7-28.99 123.7 0ZM146.89-21.26L146.89-21.26Q150.76-21.26 150.76-17.39L150.76-17.39 150.76-11.6Q150.76-7.73 146.89-7.73L146.89-7.73 135.29-7.73 135.29-13.53 144.96-13.53 144.96-15.46 133.36-15.46 133.36-5.8 146.87-5.8 144.98 0 131.43 0Q127.56 0 127.56-3.87L127.56-3.87 127.56-17.39Q127.56-21.26 131.43-21.26L131.43-21.26 146.89-21.26ZM177.82-21.28L175.9-15.48 160.42-15.48 160.42-13.53 173.95-13.53Q177.82-13.53 177.82-9.68L177.82-9.68 177.82-3.88Q177.82-0.02 173.95-0.02L173.95-0.02 154.62-0.02 154.62-5.8 172.02-5.82 172.02-7.75 158.49-7.75Q154.62-7.75 154.62-11.6L154.62-11.6 154.62-17.39Q154.62-21.28 158.49-21.28L158.49-21.28 177.82-21.28Z" transform="translate(0, 29.010000228881836)"/>
          </g>
          <g filter="url(#text-effect-sticker-shadow-FzxZCT-iR_954N3I-3K4m)" stroke="#000" stroke-width="6" stroke-linecap="round" stroke-linejoin="round" paint-order="stroke">
            <path d="M23.19-29.01L21.28-23.21 5.8-23.21 5.8-17.39 19.33-17.39Q23.19-17.39 23.19-13.55L23.19-13.55 23.19-3.88Q23.19-0.02 19.33-0.02L19.33-0.02 0-0.02 0-5.8 17.39-5.82 17.39-11.62 3.87-11.62Q0-11.62 0-15.46L0-15.46 0-25.13Q0-29.01 3.87-29.01L3.87-29.01 23.19-29.01ZM27.06-3.87L27.06-17.39Q27.06-21.26 30.92-21.26L30.92-21.26 46.39-21.26Q50.25-21.26 50.25-17.39L50.25-17.39 50.25 0 44.45 0 44.43-15.46 32.86-15.46 32.86-5.8 42.52-5.8 40.59 0 30.94 0Q27.06 0 27.06-3.87L27.06-3.87ZM67.67 0L67.67-15.46 59.92-15.46 59.92 0 54.12 0 54.12-17.39Q54.12-21.26 57.98-21.26L57.98-21.26 83.11-21.26Q86.97-21.26 86.97-17.39L86.97-17.39 86.97 0 81.18 0 81.16-15.46 73.46-15.46 73.46 0 67.67 0ZM90.84-17.39L90.84-17.39Q90.84-21.26 94.71-21.26L94.71-21.26 110.17-21.26Q114.03-21.26 114.03-17.39L114.03-17.39 114.03-3.87Q114.03 0 110.17 0L110.17 0 98.57 0 100.5-5.8 108.24-5.8 108.24-15.46 96.64-15.46 96.64 7.73 90.84 7.73 90.84-17.39ZM123.7 0L117.9 0 117.9-28.99 123.7-28.99 123.7 0ZM146.89-21.26L146.89-21.26Q150.76-21.26 150.76-17.39L150.76-17.39 150.76-11.6Q150.76-7.73 146.89-7.73L146.89-7.73 135.29-7.73 135.29-13.53 144.96-13.53 144.96-15.46 133.36-15.46 133.36-5.8 146.87-5.8 144.98 0 131.43 0Q127.56 0 127.56-3.87L127.56-3.87 127.56-17.39Q127.56-21.26 131.43-21.26L131.43-21.26 146.89-21.26ZM177.82-21.28L175.9-15.48 160.42-15.48 160.42-13.53 173.95-13.53Q177.82-13.53 177.82-9.68L177.82-9.68 177.82-3.88Q177.82-0.02 173.95-0.02L173.95-0.02 154.62-0.02 154.62-5.8 172.02-5.82 172.02-7.75 158.49-7.75Q154.62-7.75 154.62-11.6L154.62-11.6 154.62-17.39Q154.62-21.28 158.49-21.28L158.49-21.28 177.82-21.28Z" transform="translate(0, 29.010000228881836)"/>
          </g>
          <g stroke="#fff" stroke-width="5" stroke-linecap="round" stroke-linejoin="round" paint-order="stroke">
            <path d="M23.19-29.01L21.28-23.21 5.8-23.21 5.8-17.39 19.33-17.39Q23.19-17.39 23.19-13.55L23.19-13.55 23.19-3.88Q23.19-0.02 19.33-0.02L19.33-0.02 0-0.02 0-5.8 17.39-5.82 17.39-11.62 3.87-11.62Q0-11.62 0-15.46L0-15.46 0-25.13Q0-29.01 3.87-29.01L3.87-29.01 23.19-29.01ZM27.06-3.87L27.06-17.39Q27.06-21.26 30.92-21.26L30.92-21.26 46.39-21.26Q50.25-21.26 50.25-17.39L50.25-17.39 50.25 0 44.45 0 44.43-15.46 32.86-15.46 32.86-5.8 42.52-5.8 40.59 0 30.94 0Q27.06 0 27.06-3.87L27.06-3.87ZM67.67 0L67.67-15.46 59.92-15.46 59.92 0 54.12 0 54.12-17.39Q54.12-21.26 57.98-21.26L57.98-21.26 83.11-21.26Q86.97-21.26 86.97-17.39L86.97-17.39 86.97 0 81.18 0 81.16-15.46 73.46-15.46 73.46 0 67.67 0ZM90.84-17.39L90.84-17.39Q90.84-21.26 94.71-21.26L94.71-21.26 110.17-21.26Q114.03-21.26 114.03-17.39L114.03-17.39 114.03-3.87Q114.03 0 110.17 0L110.17 0 98.57 0 100.5-5.8 108.24-5.8 108.24-15.46 96.64-15.46 96.64 7.73 90.84 7.73 90.84-17.39ZM123.7 0L117.9 0 117.9-28.99 123.7-28.99 123.7 0ZM146.89-21.26L146.89-21.26Q150.76-21.26 150.76-17.39L150.76-17.39 150.76-11.6Q150.76-7.73 146.89-7.73L146.89-7.73 135.29-7.73 135.29-13.53 144.96-13.53 144.96-15.46 133.36-15.46 133.36-5.8 146.87-5.8 144.98 0 131.43 0Q127.56 0 127.56-3.87L127.56-3.87 127.56-17.39Q127.56-21.26 131.43-21.26L131.43-21.26 146.89-21.26ZM177.82-21.28L175.9-15.48 160.42-15.48 160.42-13.53 173.95-13.53Q177.82-13.53 177.82-9.68L177.82-9.68 177.82-3.88Q177.82-0.02 173.95-0.02L173.95-0.02 154.62-0.02 154.62-5.8 172.02-5.82 172.02-7.75 158.49-7.75Q154.62-7.75 154.62-11.6L154.62-11.6 154.62-17.39Q154.62-21.28 158.49-21.28L158.49-21.28 177.82-21.28Z" transform="translate(0, 29.010000228881836)"/>
          </g>
          <g stroke="#000" stroke-width="1" stroke-linecap="round" stroke-linejoin="round" paint-order="stroke" data-gra-ignore-stroke="true">
            <path d="M23.19-29.01L21.28-23.21 5.8-23.21 5.8-17.39 19.33-17.39Q23.19-17.39 23.19-13.55L23.19-13.55 23.19-3.88Q23.19-0.02 19.33-0.02L19.33-0.02 0-0.02 0-5.8 17.39-5.82 17.39-11.62 3.87-11.62Q0-11.62 0-15.46L0-15.46 0-25.13Q0-29.01 3.87-29.01L3.87-29.01 23.19-29.01ZM27.06-3.87L27.06-17.39Q27.06-21.26 30.92-21.26L30.92-21.26 46.39-21.26Q50.25-21.26 50.25-17.39L50.25-17.39 50.25 0 44.45 0 44.43-15.46 32.86-15.46 32.86-5.8 42.52-5.8 40.59 0 30.94 0Q27.06 0 27.06-3.87L27.06-3.87ZM67.67 0L67.67-15.46 59.92-15.46 59.92 0 54.12 0 54.12-17.39Q54.12-21.26 57.98-21.26L57.98-21.26 83.11-21.26Q86.97-21.26 86.97-17.39L86.97-17.39 86.97 0 81.18 0 81.16-15.46 73.46-15.46 73.46 0 67.67 0ZM90.84-17.39L90.84-17.39Q90.84-21.26 94.71-21.26L94.71-21.26 110.17-21.26Q114.03-21.26 114.03-17.39L114.03-17.39 114.03-3.87Q114.03 0 110.17 0L110.17 0 98.57 0 100.5-5.8 108.24-5.8 108.24-15.46 96.64-15.46 96.64 7.73 90.84 7.73 90.84-17.39ZM123.7 0L117.9 0 117.9-28.99 123.7-28.99 123.7 0ZM146.89-21.26L146.89-21.26Q150.76-21.26 150.76-17.39L150.76-17.39 150.76-11.6Q150.76-7.73 146.89-7.73L146.89-7.73 135.29-7.73 135.29-13.53 144.96-13.53 144.96-15.46 133.36-15.46 133.36-5.8 146.87-5.8 144.98 0 131.43 0Q127.56 0 127.56-3.87L127.56-3.87 127.56-17.39Q127.56-21.26 131.43-21.26L131.43-21.26 146.89-21.26ZM177.82-21.28L175.9-15.48 160.42-15.48 160.42-13.53 173.95-13.53Q177.82-13.53 177.82-9.68L177.82-9.68 177.82-3.88Q177.82-0.02 173.95-0.02L173.95-0.02 154.62-0.02 154.62-5.8 172.02-5.82 172.02-7.75 158.49-7.75Q154.62-7.75 154.62-11.6L154.62-11.6 154.62-17.39Q154.62-21.28 158.49-21.28L158.49-21.28 177.82-21.28Z" transform="translate(0, 29.010000228881836)"/>
          </g>
          <defs>
            <filter id="text-effect-sticker-shadow-FzxZCT-iR_954N3I-3K4m" filterUnits="objectBoundingBox" width="2" height="2" x="-0.2" y="-0.2">
              <feDropShadow dx="0" dy="1.5" stdDeviation="0" flood-color="#f5f54b" flood-opacity="1"/>
              <feDropShadow dx="0" dy="0.5" stdDeviation="0" flood-color="#000" flood-opacity="1"/>
              <feDropShadow dx="0" dy="1.5" stdDeviation="0" flood-color="#21578b" flood-opacity="1"/>
            </filter>
          </defs>
        </g>
      </g>
    </g>
    <g data-gra="path-slogan" fill-rule="" class="tp-slogan" fill="#FA3236" transform="translate(95.68670463562012,62.85240173339844)">
      <g transform="scale(1, 1)">
        <g transform="scale(1.06)">
          <path d="M2.41-1.05L2.41-1.05Q2.41-0.77 2.30-0.56Q2.19-0.34 2.00-0.20Q1.82-0.06 1.58 0.02Q1.34 0.10 1.08 0.10L1.08 0.10Q0.63 0.10 0.31-0.15Q0-0.39 0-0.91L0-0.91Q0-1.19 0.11-1.40Q0.21-1.62 0.39-1.76Q0.57-1.90 0.80-1.98Q1.03-2.06 1.28-2.06L1.28-2.06Q1.77-2.06 2.09-1.81Q2.41-1.57 2.41-1.05ZM8.67 0L5.26 0L6.86-7.55L10.06-7.55Q10.79-7.55 11.35-7.40Q11.90-7.25 12.26-6.90Q12.62-6.56 12.81-6.00Q12.99-5.44 12.99-4.63L12.99-4.63Q12.99-3.77 12.77-2.93Q12.55-2.10 12.04-1.45Q11.53-0.80 10.70-0.40Q9.88 0 8.67 0L8.67 0ZM8.00-0.83L8.51-0.83Q8.90-0.83 9.21-1.16Q9.51-1.49 9.73-1.99Q9.95-2.50 10.10-3.11Q10.25-3.72 10.34-4.29Q10.42-4.86 10.47-5.31Q10.51-5.76 10.51-5.95L10.51-5.95Q10.51-6.32 10.36-6.53Q10.21-6.74 9.84-6.74L9.84-6.74L9.27-6.74L8.00-0.83ZM15.12 0L16.73-7.55L21.73-7.55L21.54-6.64L19.11-6.64L18.61-4.35L20.65-4.35L20.46-3.46L18.42-3.46L17.88-0.91L20.30-0.91L20.12 0L15.12 0ZM24.51 0L24.07-7.55L26.78-7.55L27.19-2.44L29.66-7.55L30.83-7.55L27.32 0L24.51 0Z" transform="translate(0, 7.545074133388436)"/>
        </g>
      </g>
    </g>
  </g>
  <defs v-gra="od"/>
</svg>