<?xml version="1.0" encoding="utf-8"?>
<!-- Generator: Adobe Illustrator 27.5.0, SVG Export Plug-In . SVG Version: 6.00 Build 0)  -->
<svg version="1.1" id="Layer_1" xmlns="http://www.w3.org/2000/svg" xmlns:xlink="http://www.w3.org/1999/xlink" x="0px" y="0px"
	 viewBox="0 0 207.7 57" style="enable-background:new 0 0 207.7 57;" xml:space="preserve">
<style type="text/css">
	.st0{fill:#00FFFF;stroke:#000000;stroke-width:1.2;stroke-linecap:round;stroke-linejoin:round;}
	.st1{fill:#ffae00;stroke:#000000;stroke-width:1.2;stroke-linecap:round;stroke-linejoin:round;}
	.st2{fill:url(#SVGID_1_);stroke:#000000;stroke-width:1.2;stroke-linecap:round;stroke-linejoin:round;}
	.st3{fill-rule:evenodd;clip-rule:evenodd;fill:url(#SVGID_00000098937196691349062420000002633159053656317363_);}
</style>
<g>
	<g transform="translate(66.775 96.805)">
		<path class="st0" d="M-39.6-89.2L-39.6-89.2c3,0,5.4,0.4,7.3,1.1c1.9,0.8,3.3,1.9,4.4,3.5l0,0c0.7,1.1,1.2,2.3,1.6,3.7
			c0.4,1.4,0.6,2.9,0.6,4.7l0,0c0,1.5-0.1,3.1-0.4,4.6c-0.3,1.5-0.7,3-1.2,4.4c-0.5,1.4-1.1,2.7-1.8,4c-0.7,1.2-1.5,2.3-2.4,3.3l0,0
			c-1.6,1.8-3.5,3-5.6,3.7c-2.1,0.7-4.8,1.1-7.9,1.1l0,0c-3,0-5.5-0.3-7.3-0.9c-1.8-0.6-3.3-1.6-4.4-3l0,0c-0.8-1-1.4-2.2-1.8-3.7
			c-0.4-1.5-0.7-3.4-0.7-5.6l0,0c0-3.8,0.7-7.3,2.1-10.3c1.4-3,3.3-5.4,5.8-7.2l0,0c1.5-1.1,3.2-1.9,5.1-2.4
			C-44.3-88.9-42.1-89.2-39.6-89.2z M-45.5-58.9L-45.5-58.9c0.8,0,1.6-0.4,2.3-1.1c0.7-0.7,1.4-1.7,2-2.9c0.6-1.2,1.2-2.6,1.7-4.1
			c0.5-1.5,0.9-3.1,1.3-4.7c0.3-1.6,0.6-3.2,0.8-4.9c0.2-1.6,0.3-3.1,0.3-4.4l0,0c0-1.8-0.2-3-0.5-3.7c-0.4-0.7-0.9-1-1.6-1l0,0
			c-0.8,0-1.6,0.3-2.3,1c-0.7,0.7-1.4,1.6-2,2.8c-0.6,1.2-1.2,2.5-1.7,4c-0.5,1.5-0.9,3.1-1.3,4.7c-0.4,1.6-0.6,3.2-0.8,4.7
			c-0.2,1.6-0.3,3-0.3,4.3l0,0c0,2,0.2,3.3,0.7,4.1C-46.7-59.2-46.2-58.9-45.5-58.9z M5.2-88.7l-0.9,4h-8.4l-6.2,29.1h-11.2
			l6.2-29.1h-8.3l0.9-4C-22.7-88.7,5.2-88.7,5.2-88.7z M34-88.7l-0.9,4h-8.4l-6.2,29.1H7.3l6.2-29.1H5.3l0.9-4
			C6.2-88.7,34-88.7,34-88.7z M53.1-88.7l3.6,33H44.6l-0.7-8.3h-9.6l-3.7,8.3h-5.1l15.4-33C40.8-88.7,53.1-88.7,53.1-88.7z
			 M42.3-81.9l-6.3,14.1h7.6C43.5-67.7,42.3-81.9,42.3-81.9z M64-55.6l-1.9-33H74l1.8,22.4l10.8-22.4h5.1l-15.4,33H64z M106.4-88.7
			l-7.1,33H88.1l7-33H106.4z M126.4-89.2L126.4-89.2c3,0,5.4,0.4,7.3,1.1c1.9,0.8,3.3,1.9,4.4,3.5l0,0c0.7,1.1,1.2,2.3,1.6,3.7
			c0.4,1.4,0.6,2.9,0.6,4.7l0,0c0,1.5-0.1,3.1-0.4,4.6c-0.3,1.5-0.7,3-1.2,4.4c-0.5,1.4-1.1,2.7-1.8,4c-0.7,1.2-1.5,2.3-2.4,3.3l0,0
			c-1.6,1.8-3.5,3-5.6,3.7c-2.1,0.7-4.8,1.1-7.9,1.1l0,0c-3,0-5.4-0.3-7.3-0.9c-1.8-0.6-3.3-1.6-4.4-3l0,0c-0.8-1-1.4-2.2-1.8-3.7
			c-0.4-1.5-0.7-3.4-0.7-5.6l0,0c0-3.8,0.7-7.3,2.1-10.3c1.4-3,3.3-5.4,5.9-7.2l0,0c1.5-1.1,3.2-1.9,5.1-2.4
			C121.7-88.9,123.9-89.2,126.4-89.2z M120.5-58.9L120.5-58.9c0.8,0,1.6-0.4,2.3-1.1c0.7-0.7,1.4-1.7,2-2.9c0.6-1.2,1.2-2.6,1.7-4.1
			c0.5-1.5,0.9-3.1,1.3-4.7c0.3-1.6,0.6-3.2,0.8-4.9c0.2-1.6,0.3-3.1,0.3-4.4l0,0c0-1.8-0.2-3-0.6-3.7c-0.4-0.7-0.9-1-1.6-1l0,0
			c-0.8,0-1.6,0.3-2.3,1c-0.7,0.7-1.4,1.6-2.1,2.8c-0.6,1.2-1.2,2.5-1.7,4c-0.5,1.5-0.9,3.1-1.3,4.7c-0.4,1.6-0.6,3.2-0.8,4.7
			c-0.2,1.6-0.3,3-0.3,4.3l0,0c0,2,0.2,3.3,0.6,4.1C119.3-59.2,119.9-58.9,120.5-58.9z"/>
		<path class="st1" d="M-43.1-92.7L-43.1-92.7c3,0,5.4,0.4,7.3,1.1c1.9,0.8,3.3,1.9,4.4,3.5l0,0c0.7,1.1,1.2,2.3,1.6,3.7
			c0.4,1.4,0.6,2.9,0.6,4.7l0,0c0,1.5-0.1,3.1-0.4,4.6c-0.3,1.5-0.7,3-1.2,4.4c-0.5,1.4-1.1,2.7-1.8,4c-0.7,1.2-1.5,2.3-2.4,3.3l0,0
			c-1.6,1.8-3.5,3-5.6,3.7c-2.1,0.7-4.8,1.1-7.9,1.1l0,0c-3,0-5.5-0.3-7.3-0.9c-1.8-0.6-3.3-1.6-4.4-3l0,0c-0.8-1-1.4-2.2-1.8-3.7
			c-0.4-1.5-0.7-3.4-0.7-5.6l0,0c0-3.8,0.7-7.3,2.1-10.3c1.4-3,3.3-5.4,5.8-7.2l0,0c1.5-1.1,3.2-1.9,5.1-2.4
			C-47.8-92.4-45.6-92.7-43.1-92.7z M-49-62.4L-49-62.4c0.8,0,1.6-0.4,2.3-1.1c0.7-0.7,1.4-1.7,2-2.9c0.6-1.2,1.2-2.6,1.7-4.1
			c0.5-1.5,0.9-3.1,1.3-4.7c0.3-1.6,0.6-3.2,0.8-4.9c0.2-1.6,0.3-3.1,0.3-4.4l0,0c0-1.8-0.2-3-0.5-3.7c-0.4-0.7-0.9-1-1.6-1l0,0
			c-0.8,0-1.6,0.3-2.3,1c-0.7,0.7-1.4,1.6-2,2.8c-0.6,1.2-1.2,2.5-1.7,4c-0.5,1.5-0.9,3.1-1.3,4.7c-0.4,1.6-0.6,3.2-0.8,4.7
			c-0.2,1.6-0.3,3-0.3,4.3l0,0c0,2,0.2,3.3,0.7,4.1C-50.2-62.7-49.7-62.4-49-62.4z M1.7-92.2l-0.9,4h-8.4l-6.2,29.1H-25l6.2-29.1
			h-8.3l0.9-4C-26.2-92.2,1.7-92.2,1.7-92.2z M30.5-92.2l-0.9,4h-8.4l-6.2,29.1H3.8L10-88.2H1.8l0.9-4C2.7-92.2,30.5-92.2,30.5-92.2
			z M49.6-92.2l3.6,33H41.1l-0.7-8.3h-9.6L27-59.1H22l15.4-33C37.3-92.2,49.6-92.2,49.6-92.2z M38.8-85.4l-6.3,14.1H40
			C40-71.2,38.8-85.4,38.8-85.4z M60.5-59.1l-1.9-33h11.9l1.8,22.4l10.8-22.4h5.1l-15.4,33C72.8-59.1,60.5-59.1,60.5-59.1z
			 M102.9-92.2l-7.1,33H84.6l7-33H102.9z M122.9-92.7L122.9-92.7c3,0,5.4,0.4,7.3,1.1c1.9,0.8,3.3,1.9,4.4,3.5l0,0
			c0.7,1.1,1.2,2.3,1.6,3.7c0.4,1.4,0.6,2.9,0.6,4.7l0,0c0,1.5-0.1,3.1-0.4,4.6c-0.3,1.5-0.7,3-1.2,4.4c-0.5,1.4-1.1,2.7-1.8,4
			c-0.7,1.2-1.5,2.3-2.4,3.3l0,0c-1.6,1.8-3.5,3-5.6,3.7c-2.1,0.7-4.8,1.1-7.9,1.1l0,0c-3,0-5.4-0.3-7.3-0.9s-3.3-1.6-4.4-3l0,0
			c-0.8-1-1.4-2.2-1.8-3.7c-0.4-1.5-0.7-3.4-0.7-5.6l0,0c0-3.8,0.7-7.3,2.1-10.3c1.4-3,3.3-5.4,5.9-7.2l0,0c1.5-1.1,3.2-1.9,5.1-2.4
			C118.2-92.4,120.4-92.7,122.9-92.7L122.9-92.7z M117-62.4L117-62.4c0.8,0,1.6-0.4,2.3-1.1c0.7-0.7,1.4-1.7,2-2.9
			c0.6-1.2,1.2-2.6,1.7-4.1c0.5-1.5,0.9-3.1,1.3-4.7c0.3-1.6,0.6-3.2,0.8-4.9c0.2-1.6,0.3-3.1,0.3-4.4l0,0c0-1.8-0.2-3-0.6-3.7
			c-0.4-0.7-0.9-1-1.6-1l0,0c-0.8,0-1.6,0.3-2.3,1c-0.7,0.7-1.4,1.6-2.1,2.8c-0.6,1.2-1.2,2.5-1.7,4c-0.5,1.5-0.9,3.1-1.3,4.7
			c-0.4,1.6-0.6,3.2-0.8,4.7c-0.2,1.6-0.3,3-0.3,4.3l0,0c0,2,0.2,3.3,0.6,4.1C115.8-62.7,116.4-62.4,117-62.4z"/>
		
			<linearGradient id="SVGID_1_" gradientUnits="userSpaceOnUse" x1="-33.9464" y1="2.2816" x2="-33.9464" y2="3.2816" gradientTransform="matrix(199.45 0 0 -33.99 6804.1538 15.3354)">
			<stop  offset="0" style="stop-color:#C471F5"/>
			<stop  offset="1" style="stop-color:#FA70CD"/>
		</linearGradient>
		<path class="st2" d="M-46.6-96.2L-46.6-96.2c3,0,5.4,0.4,7.3,1.1c1.9,0.8,3.3,1.9,4.4,3.5l0,0c0.7,1.1,1.2,2.3,1.6,3.7
			c0.4,1.4,0.6,2.9,0.6,4.7l0,0c0,1.5-0.1,3.1-0.4,4.6c-0.3,1.5-0.7,3-1.2,4.4c-0.5,1.4-1.1,2.7-1.8,4c-0.7,1.2-1.5,2.3-2.4,3.3l0,0
			c-1.6,1.8-3.5,3-5.6,3.7c-2.1,0.7-4.8,1.1-7.9,1.1l0,0c-3,0-5.5-0.3-7.3-0.9s-3.3-1.6-4.4-3l0,0c-0.8-1-1.4-2.2-1.8-3.7
			c-0.4-1.5-0.7-3.4-0.7-5.6l0,0c0-3.8,0.7-7.3,2.1-10.3c1.4-3,3.3-5.4,5.9-7.2l0,0c1.5-1.1,3.2-1.9,5.1-2.4
			C-51.3-95.9-49.1-96.2-46.6-96.2z M-52.5-65.9L-52.5-65.9c0.8,0,1.6-0.4,2.3-1.1c0.7-0.7,1.4-1.7,2-2.9c0.6-1.2,1.2-2.6,1.7-4.1
			c0.5-1.5,0.9-3.1,1.3-4.7c0.3-1.6,0.6-3.2,0.8-4.9c0.2-1.6,0.3-3.1,0.3-4.4l0,0c0-1.8-0.2-3-0.5-3.7c-0.4-0.7-0.9-1-1.6-1l0,0
			c-0.8,0-1.6,0.3-2.3,1c-0.7,0.7-1.4,1.6-2,2.8c-0.6,1.2-1.2,2.5-1.7,4c-0.5,1.5-0.9,3.1-1.3,4.7c-0.4,1.6-0.6,3.2-0.8,4.7
			c-0.2,1.6-0.3,3-0.3,4.3l0,0c0,2,0.2,3.3,0.6,4.1C-53.7-66.2-53.2-65.9-52.5-65.9z M-1.8-95.7l-0.9,4h-8.4l-6.2,29.1h-11.2
			l6.2-29.1h-8.3l0.9-4C-29.7-95.7-1.8-95.7-1.8-95.7z M27-95.7l-0.9,4h-8.4l-6.2,29.1H0.3l6.2-29.1h-8.3l0.9-4
			C-0.8-95.7,27-95.7,27-95.7z M46.1-95.7l3.6,33H37.6l-0.7-8.3h-9.6l-3.7,8.3h-5.1l15.4-33H46.1z M35.3-88.9l-6.3,14.1h7.6
			C36.5-74.7,35.3-88.9,35.3-88.9z M57-62.6l-1.9-33H67l1.8,22.4l10.8-22.4h5.1l-15.4,33C69.3-62.6,57-62.6,57-62.6z M99.4-95.7
			l-7.1,33H81.1l7-33H99.4z M119.4-96.2L119.4-96.2c3,0,5.4,0.4,7.3,1.1c1.9,0.8,3.3,1.9,4.4,3.5l0,0c0.7,1.1,1.2,2.3,1.6,3.7
			c0.4,1.4,0.6,2.9,0.6,4.7l0,0c0,1.5-0.1,3.1-0.4,4.6c-0.3,1.5-0.7,3-1.2,4.4c-0.5,1.4-1.1,2.7-1.8,4c-0.7,1.2-1.5,2.3-2.4,3.3l0,0
			c-1.6,1.8-3.5,3-5.6,3.7c-2.1,0.7-4.8,1.1-7.9,1.1l0,0c-3,0-5.4-0.3-7.3-0.9s-3.3-1.6-4.4-3l0,0c-0.8-1-1.4-2.2-1.8-3.7
			c-0.4-1.5-0.7-3.4-0.7-5.6l0,0c0-3.8,0.7-7.3,2.1-10.3c1.4-3,3.3-5.4,5.9-7.2l0,0c1.5-1.1,3.2-1.9,5.1-2.4
			C114.7-95.9,116.9-96.2,119.4-96.2z M113.5-65.9L113.5-65.9c0.8,0,1.6-0.4,2.3-1.1c0.7-0.7,1.4-1.7,2-2.9c0.6-1.2,1.2-2.6,1.7-4.1
			c0.5-1.5,0.9-3.1,1.3-4.7c0.3-1.6,0.6-3.2,0.8-4.9c0.2-1.6,0.3-3.1,0.3-4.4l0,0c0-1.8-0.2-3-0.6-3.7c-0.4-0.7-0.9-1-1.6-1l0,0
			c-0.8,0-1.6,0.3-2.3,1c-0.7,0.7-1.4,1.6-2.1,2.8c-0.6,1.2-1.2,2.5-1.7,4c-0.5,1.5-0.9,3.1-1.3,4.7c-0.4,1.6-0.6,3.2-0.8,4.7
			c-0.2,1.6-0.3,3-0.3,4.3l0,0c0,2,0.2,3.3,0.6,4.1C112.3-66.2,112.9-65.9,113.5-65.9z"/>
	</g>
	
		<linearGradient id="SVGID_00000008855881315141679250000012083579158250263696_" gradientUnits="userSpaceOnUse" x1="31.325" y1="103.1656" x2="31.325" y2="104.1656" gradientTransform="matrix(49.5 0 0 -9.4 -1446.7625 1026.7466)">
		<stop  offset="0" style="stop-color:#C471F5"/>
		<stop  offset="1" style="stop-color:#FA70CD"/>
	</linearGradient>
	<path style="fill-rule:evenodd;clip-rule:evenodd;fill:url(#SVGID_00000008855881315141679250000012083579158250263696_);" d="
		M102.9,57l-0.2-7.9l4.6-0.1v0.8l-3.6,0.1l0.1,2.5l3-0.1v0.9h-3l0.1,2.9l3.6-0.1l0.1,0.9L102.9,57z M114.5,56l-4-7.3l1.1-0.2l2,4
		l0.6,1.2l0.6,1.2h0.1c0-0.5,0.1-0.9,0.1-1.4c0.1-0.4,0.1-0.9,0.2-1.3l0.4-4.4l1-0.2l-1,8.2C115.6,55.8,114.5,56,114.5,56z
		 M91.6,55.8l1.2-7.8l1.9,0.3c1,0.1,2,0.6,2.6,1.4c0.5,0.7,0.7,1.7,0.5,3c-0.1,0.6-0.3,1.1-0.5,1.6c-0.3,0.5-0.6,0.8-0.9,1.1
		c-0.3,0.3-0.8,0.5-1.3,0.6c-0.5,0.1-1,0.2-1.6,0.1C93.5,56.1,91.6,55.8,91.6,55.8z M92.7,55.1l0.9,0.1c0.7,0.2,1.5,0,2.1-0.5
		c0.6-0.6,1-1.4,1.1-2.2c0.1-0.9,0-1.7-0.4-2.3c-0.4-0.6-1.1-1-1.9-1.1l-0.9-0.2C93.6,48.9,92.7,55.1,92.7,55.1z M79.1,48.9l0.3-0.7
		l2.5,1.1L81.6,50L79.1,48.9z M126.1,50l-0.3-0.7l2.5-1.1l0.3,0.7L126.1,50z M85.3,52.9C85.1,53,85,53.1,85,53.3
		c-0.1,0.2-0.1,0.4,0,0.6c0.1,0.2,0.3,0.3,0.4,0.4c0.2,0.1,0.4,0,0.6-0.1c0.1-0.1,0.3-0.2,0.3-0.4c0.1-0.3,0.1-0.5,0-0.6
		c-0.1-0.2-0.2-0.3-0.4-0.4C85.7,52.7,85.4,52.8,85.3,52.9z"/>
</g>
</svg>
