<svg version="1.0" xmlns="http://www.w3.org/2000/svg" viewBox="0 0 340 250" color-interpolation-filters="sRGB" style="margin:auto"><g fill="#A174FF" class="pmspacesvg"><g mask="url(#a)" transform="translate(38.25 77.744)"><rect data-gra="graph-name" fill="#FAD61D" x=".5" y=".5" width="256" height="73" rx="12" ry="12"/><rect data-gra="graph-name" fill="#FAD61D" x="1" y="1" width="256" height="73" rx="12" ry="12"/><rect data-gra="graph-name" fill="#FAD61D" x="1.5" y="1.5" width="256" height="73" rx="12" ry="12"/><rect data-gra="graph-name" fill="#FAD61D" x="2" y="2" width="256" height="73" rx="12" ry="12"/><rect data-gra="graph-name" fill="#FAD61D" x="2.5" y="2.5" width="256" height="73" rx="12" ry="12"/><rect data-gra="graph-name" fill="#FAD61D" x="3" y="3" width="256" height="73" rx="12" ry="12"/><rect data-gra="graph-name" fill="#FAD61D" x="3.5" y="3.5" width="256" height="73" rx="12" ry="12"/><rect data-gra="graph-name" fill="#FAD61D" x="4" y="4" width="256" height="73" rx="12" ry="12"/><rect data-gra="graph-name" fill="#FAD61D" x="4.5" y="4.5" width="256" height="73" rx="12" ry="12"/><rect data-gra="graph-name" fill="#FAD61D" x="5" y="5" width="256" height="73" rx="12" ry="12"/><rect data-gra="graph-name" fill="#FAD61D" x="5.5" y="5.5" width="256" height="73" rx="12" ry="12"/><rect data-gra="graph-name" fill="#FAD61D" x="6" y="6" width="256" height="73" rx="12" ry="12"/><rect data-gra="graph-name" fill="#FAD61D" x="6.5" y="6.5" width="256" height="73" rx="12" ry="12"/><rect data-gra="graph-name" fill="#FAD61D" x="7" y="7" width="256" height="73" rx="12" ry="12"/><rect data-gra="graph-name" fill="#FAD61D" x="7.5" y="7.5" width="256" height="73" rx="12" ry="12"/><rect data-gra="graph-name" width="256" height="73" rx="12" ry="12"/><path d="M22.9 51.68q-4.11 0-7.58-1.74-3.46-1.75-5.32-4.96l3.83-2.76q1.24 2.59 3.63 4.06 2.4 1.46 5.78 1.46 2.98 0 4.67-1.15 1.69-1.16 1.69-3.02 0-1.18-.76-2.17-.76-.98-2.9-1.43l-6.76-1.41q-4.11-.85-5.89-2.82-1.77-1.97-1.77-4.9 0-2.31 1.32-4.22 1.33-1.92 3.78-3.07 2.45-1.16 5.77-1.16 4.17 0 7.04 1.63 2.88 1.64 4.28 4.62l-3.77 2.48q-.96-2.48-3.1-3.63-2.14-1.16-4.45-1.16-2.03 0-3.46.57-1.44.56-2.2 1.55-.76.98-.76 2.22 0 1.24.84 2.28.85 1.05 3.16 1.5l7.04 1.46q3.94.79 5.52 2.59 1.58 1.8 1.58 4.4 0 2.64-1.41 4.64-1.41 2-3.94 3.07-2.54 1.07-5.86 1.07ZM60.89 40.7v-7.77q0-3.16-1.69-4.88-1.69-1.72-4.78-1.72-2.93 0-4.96 1.27t-2.99 4.09l-3.66-2.26q1.13-3.15 4.17-5.1 3.04-1.94 7.55-1.94 3.04 0 5.52 1.04 2.48 1.05 3.91 3.16 1.44 2.11 1.44 5.43v13.64q0 2.02 2.14 2.02 1.07 0 2.09-.28l-.23 3.55q-1.13.56-2.93.56-1.63 0-2.93-.62-1.29-.61-2.03-1.88-.73-1.27-.73-3.19v-.56l1.13.17q-.68 2.2-2.31 3.58-1.64 1.38-3.66 2.03-2.03.64-4 .64-2.48 0-4.62-.84-2.14-.85-3.41-2.56-1.27-1.72-1.27-4.26 0-3.15 2.12-5.21 2.11-2.05 5.88-2.79l11.16-2.19v3.71l-9.07 1.86q-2.76.57-4.12 1.58-1.35 1.01-1.35 2.82 0 1.74 1.38 2.84 1.38 1.1 3.92 1.1 1.63 0 3.12-.42 1.5-.42 2.68-1.3 1.18-.87 1.86-2.19.67-1.33.67-3.13Zm21.95 10.42h-4.51V22.95h3.94l.28 4.4q1.52-2.59 3.97-3.78 2.46-1.18 5.05-1.18 2.98 0 5.63 1.35 2.65 1.36 4.06 4.17.9-1.91 2.53-3.12 1.63-1.22 3.58-1.81 1.94-.59 3.69-.59 2.7 0 5.15 1.13 2.45 1.12 4.03 3.49t1.58 6.08v18.03h-4.51V33.54q0-3.83-1.92-5.52-1.91-1.69-4.73-1.69-2.19 0-4.11 1.07-1.91 1.07-3.07 3.16-1.15 2.08-1.15 5.13v15.43h-4.51V33.54q0-3.83-1.92-5.52-1.91-1.69-4.73-1.69-1.86 0-3.8.99-1.94.99-3.24 3.13-1.29 2.14-1.29 5.63v15.04Zm55.68 11.83h-4.51v-40h3.95l.39 6.88-.62-.79q.73-1.97 2.2-3.47 1.46-1.49 3.55-2.33 2.08-.85 4.5-.85 3.44 0 6.34 1.75 2.9 1.74 4.65 5.01 1.74 3.27 1.74 7.89 0 4.56-1.77 7.86-1.78 3.29-4.7 5.04-2.93 1.74-6.43 1.74-3.49 0-6.11-1.71-2.62-1.72-3.74-4.37l.56-.85v18.2Zm8.84-15.21q4.17 0 6.51-2.93t2.34-7.77q0-4.85-2.28-7.78-2.29-2.93-6.4-2.93-2.7 0-4.73 1.33-2.03 1.32-3.15 3.72-1.13 2.39-1.13 5.66 0 3.21 1.1 5.63t3.1 3.75q2 1.32 4.64 1.32ZM171.11 10h4.5v33.97q0 2.14.79 2.95.79.82 2.54.82 1.12 0 1.86-.17.73-.17 1.97-.62l-.74 3.94q-.9.4-1.97.6-1.07.19-2.19.19-3.44 0-5.1-1.86-1.66-1.85-1.66-5.69V10Zm31.23 41.68q-4 0-7.12-1.74-3.13-1.75-4.88-5.04-1.74-3.3-1.74-7.86 0-4.57 1.74-7.86 1.75-3.3 4.79-5.04 3.04-1.75 6.93-1.75 3.94 0 6.73 1.69 2.79 1.69 4.26 4.59 1.46 2.9 1.46 6.51 0 .96-.06 1.74-.05.79-.17 1.41h-22.75v-4h20.78l-2.31.45q0-4.05-2.22-6.25-2.23-2.2-5.83-2.2-2.76 0-4.76 1.27t-3.1 3.66q-1.1 2.4-1.1 5.78 0 3.32 1.13 5.74 1.12 2.43 3.18 3.69 2.06 1.27 4.93 1.27 3.1 0 5.04-1.18 1.94-1.19 3.13-3.21l3.55 2.08q-1.07 1.92-2.74 3.32-1.66 1.41-3.88 2.17-2.23.76-4.99.76Zm32.87 0q-4.11 0-7.57-1.74-3.47-1.75-5.33-4.96l3.83-2.76q1.24 2.59 3.64 4.06 2.39 1.46 5.77 1.46 2.99 0 4.68-1.15 1.69-1.16 1.69-3.02 0-1.18-.77-2.17-.76-.98-2.9-1.43l-6.76-1.41q-4.11-.85-5.88-2.82-1.78-1.97-1.78-4.9 0-2.31 1.33-4.22 1.32-1.92 3.77-3.07 2.45-1.16 5.77-1.16 4.17 0 7.05 1.63 2.87 1.64 4.28 4.62l-3.78 2.48q-.95-2.48-3.09-3.63-2.15-1.16-4.46-1.16-2.02 0-3.46.57-1.44.56-2.2 1.55-.76.98-.76 2.22 0 1.24.85 2.28.84 1.05 3.15 1.5l7.04 1.46q3.95.79 5.52 2.59 1.58 1.8 1.58 4.4 0 2.64-1.41 4.64-1.4 2-3.94 3.07-2.53 1.07-5.86 1.07Z" data-gra="path-name" class="tp-name"/></g><path d="M158.955 171.516c0 .22.07.39.21.53.14.14.31.21.51.21.19 0 .36-.07.5-.21.14-.14.21-.31.21-.53 0-.23-.07-.42-.21-.56a.688.688 0 0 0-.5-.21c-.2 0-.37.07-.51.21-.14.14-.21.33-.21.56Zm3.29-7.27v7.87h2.01c.6 0 1.12-.09 1.58-.27.45-.18.84-.44 1.15-.78.31-.34.55-.76.71-1.25.16-.49.24-1.05.24-1.67 0-1.26-.32-2.22-.95-2.89-.63-.68-1.56-1.01-2.77-1.01Zm1.89 7.05h-.9v-6.24h.9c.92 0 1.61.27 2.07.8.46.52.69 1.29.69 2.29s-.23 1.77-.69 2.33c-.46.55-1.15.82-2.07.82Zm5.49-7.05v7.87h4.65v-.85h-3.66v-2.86h2.99v-.85h-2.99v-2.47h3.54v-.84Zm5.24 0 2.52 7.87h1.17l2.49-7.87h-1.02l-1.26 4.25c-.13.47-.26.9-.37 1.3-.11.4-.24.84-.38 1.3h-.05c-.15-.46-.28-.9-.39-1.3-.11-.4-.24-.83-.38-1.3l-1.26-4.25Z" data-gra="path-slogan" class="tp-slogan" fill="#26125b"/></g><mask id="a"><g fill="#fff"><rect data-gra="graph-name" x=".5" y=".5" width="256" height="73" rx="12" ry="12"/><rect data-gra="graph-name" x="1" y="1" width="256" height="73" rx="12" ry="12"/><rect data-gra="graph-name" x="1.5" y="1.5" width="256" height="73" rx="12" ry="12"/><rect data-gra="graph-name" x="2" y="2" width="256" height="73" rx="12" ry="12"/><rect data-gra="graph-name" x="2.5" y="2.5" width="256" height="73" rx="12" ry="12"/><rect data-gra="graph-name" x="3" y="3" width="256" height="73" rx="12" ry="12"/><rect data-gra="graph-name" x="3.5" y="3.5" width="256" height="73" rx="12" ry="12"/><rect data-gra="graph-name" x="4" y="4" width="256" height="73" rx="12" ry="12"/><rect data-gra="graph-name" x="4.5" y="4.5" width="256" height="73" rx="12" ry="12"/><rect data-gra="graph-name" x="5" y="5" width="256" height="73" rx="12" ry="12"/><rect data-gra="graph-name" x="5.5" y="5.5" width="256" height="73" rx="12" ry="12"/><rect data-gra="graph-name" x="6" y="6" width="256" height="73" rx="12" ry="12"/><rect data-gra="graph-name" x="6.5" y="6.5" width="256" height="73" rx="12" ry="12"/><rect data-gra="graph-name" x="7" y="7" width="256" height="73" rx="12" ry="12"/><rect data-gra="graph-name" x="7.5" y="7.5" width="256" height="73" rx="12" ry="12"/><rect data-gra="graph-name" fill="#000" x="2" y="2" width="256" height="73" rx="12" ry="12"/><rect data-gra="graph-name" width="256" height="73" rx="12" ry="12"/></g><path d="M22.9 51.68q-4.11 0-7.58-1.74-3.46-1.75-5.32-4.96l3.83-2.76q1.24 2.59 3.63 4.06 2.4 1.46 5.78 1.46 2.98 0 4.67-1.15 1.69-1.16 1.69-3.02 0-1.18-.76-2.17-.76-.98-2.9-1.43l-6.76-1.41q-4.11-.85-5.89-2.82-1.77-1.97-1.77-4.9 0-2.31 1.32-4.22 1.33-1.92 3.78-3.07 2.45-1.16 5.77-1.16 4.17 0 7.04 1.63 2.88 1.64 4.28 4.62l-3.77 2.48q-.96-2.48-3.1-3.63-2.14-1.16-4.45-1.16-2.03 0-3.46.57-1.44.56-2.2 1.55-.76.98-.76 2.22 0 1.24.84 2.28.85 1.05 3.16 1.5l7.04 1.46q3.94.79 5.52 2.59 1.58 1.8 1.58 4.4 0 2.64-1.41 4.64-1.41 2-3.94 3.07-2.54 1.07-5.86 1.07ZM60.89 40.7v-7.77q0-3.16-1.69-4.88-1.69-1.72-4.78-1.72-2.93 0-4.96 1.27t-2.99 4.09l-3.66-2.26q1.13-3.15 4.17-5.1 3.04-1.94 7.55-1.94 3.04 0 5.52 1.04 2.48 1.05 3.91 3.16 1.44 2.11 1.44 5.43v13.64q0 2.02 2.14 2.02 1.07 0 2.09-.28l-.23 3.55q-1.13.56-2.93.56-1.63 0-2.93-.62-1.29-.61-2.03-1.88-.73-1.27-.73-3.19v-.56l1.13.17q-.68 2.2-2.31 3.58-1.64 1.38-3.66 2.03-2.03.64-4 .64-2.48 0-4.62-.84-2.14-.85-3.41-2.56-1.27-1.72-1.27-4.26 0-3.15 2.12-5.21 2.11-2.05 5.88-2.79l11.16-2.19v3.71l-9.07 1.86q-2.76.57-4.12 1.58-1.35 1.01-1.35 2.82 0 1.74 1.38 2.84 1.38 1.1 3.92 1.1 1.63 0 3.12-.42 1.5-.42 2.68-1.3 1.18-.87 1.86-2.19.67-1.33.67-3.13Zm21.95 10.42h-4.51V22.95h3.94l.28 4.4q1.52-2.59 3.97-3.78 2.46-1.18 5.05-1.18 2.98 0 5.63 1.35 2.65 1.36 4.06 4.17.9-1.91 2.53-3.12 1.63-1.22 3.58-1.81 1.94-.59 3.69-.59 2.7 0 5.15 1.13 2.45 1.12 4.03 3.49t1.58 6.08v18.03h-4.51V33.54q0-3.83-1.92-5.52-1.91-1.69-4.73-1.69-2.19 0-4.11 1.07-1.91 1.07-3.07 3.16-1.15 2.08-1.15 5.13v15.43h-4.51V33.54q0-3.83-1.92-5.52-1.91-1.69-4.73-1.69-1.86 0-3.8.99-1.94.99-3.24 3.13-1.29 2.14-1.29 5.63v15.04Zm55.68 11.83h-4.51v-40h3.95l.39 6.88-.62-.79q.73-1.97 2.2-3.47 1.46-1.49 3.55-2.33 2.08-.85 4.5-.85 3.44 0 6.34 1.75 2.9 1.74 4.65 5.01 1.74 3.27 1.74 7.89 0 4.56-1.77 7.86-1.78 3.29-4.7 5.04-2.93 1.74-6.43 1.74-3.49 0-6.11-1.71-2.62-1.72-3.74-4.37l.56-.85v18.2Zm8.84-15.21q4.17 0 6.51-2.93t2.34-7.77q0-4.85-2.28-7.78-2.29-2.93-6.4-2.93-2.7 0-4.73 1.33-2.03 1.32-3.15 3.72-1.13 2.39-1.13 5.66 0 3.21 1.1 5.63t3.1 3.75q2 1.32 4.64 1.32ZM171.11 10h4.5v33.97q0 2.14.79 2.95.79.82 2.54.82 1.12 0 1.86-.17.73-.17 1.97-.62l-.74 3.94q-.9.4-1.97.6-1.07.19-2.19.19-3.44 0-5.1-1.86-1.66-1.85-1.66-5.69V10Zm31.23 41.68q-4 0-7.12-1.74-3.13-1.75-4.88-5.04-1.74-3.3-1.74-7.86 0-4.57 1.74-7.86 1.75-3.3 4.79-5.04 3.04-1.75 6.93-1.75 3.94 0 6.73 1.69 2.79 1.69 4.26 4.59 1.46 2.9 1.46 6.51 0 .96-.06 1.74-.05.79-.17 1.41h-22.75v-4h20.78l-2.31.45q0-4.05-2.22-6.25-2.23-2.2-5.83-2.2-2.76 0-4.76 1.27t-3.1 3.66q-1.1 2.4-1.1 5.78 0 3.32 1.13 5.74 1.12 2.43 3.18 3.69 2.06 1.27 4.93 1.27 3.1 0 5.04-1.18 1.94-1.19 3.13-3.21l3.55 2.08q-1.07 1.92-2.74 3.32-1.66 1.41-3.88 2.17-2.23.76-4.99.76Zm32.87 0q-4.11 0-7.57-1.74-3.47-1.75-5.33-4.96l3.83-2.76q1.24 2.59 3.64 4.06 2.39 1.46 5.77 1.46 2.99 0 4.68-1.15 1.69-1.16 1.69-3.02 0-1.18-.77-2.17-.76-.98-2.9-1.43l-6.76-1.41q-4.11-.85-5.88-2.82-1.78-1.97-1.78-4.9 0-2.31 1.33-4.22 1.32-1.92 3.77-3.07 2.45-1.16 5.77-1.16 4.17 0 7.05 1.63 2.87 1.64 4.28 4.62l-3.78 2.48q-.95-2.48-3.09-3.63-2.15-1.16-4.46-1.16-2.02 0-3.46.57-1.44.56-2.2 1.55-.76.98-.76 2.22 0 1.24.85 2.28.84 1.05 3.15 1.5l7.04 1.46q3.95.79 5.52 2.59 1.58 1.8 1.58 4.4 0 2.64-1.41 4.64-1.4 2-3.94 3.07-2.53 1.07-5.86 1.07Z" data-gra="path-name" class="tp-name"/></mask></svg>