<?xml version="1.0" encoding="utf-8"?>
<!-- Generator: Adobe Illustrator 27.5.0, SVG Export Plug-In . SVG Version: 6.00 Build 0)  -->
<svg version="1.1" id="Layer_1" xmlns="http://www.w3.org/2000/svg" xmlns:xlink="http://www.w3.org/1999/xlink" x="0px" y="0px"
	 viewBox="0 0 41.6 42.2" style="enable-background:new 0 0 41.6 42.2;" xml:space="preserve">
<style type="text/css">
	.st0{fill:#00FFFF;stroke:#000000;stroke-width:1.2;stroke-linecap:round;stroke-linejoin:round;}
	.st1{fill:#ffae00;stroke:#000000;stroke-width:1.2;stroke-linecap:round;stroke-linejoin:round;}
	.st2{fill:url(#SVGID_1_);stroke:#000000;stroke-width:1.2;stroke-linecap:round;stroke-linejoin:round;}
</style>
<g>
	<g transform="translate(66.775 96.805)">
		<path class="st0" d="M-39.6-89.2L-39.6-89.2c3,0,5.4,0.4,7.3,1.1c1.9,0.8,3.3,1.9,4.4,3.5l0,0c0.7,1.1,1.2,2.3,1.6,3.7
			c0.4,1.4,0.6,2.9,0.6,4.7l0,0c0,1.5-0.1,3.1-0.4,4.6c-0.3,1.5-0.7,3-1.2,4.4c-0.5,1.4-1.1,2.7-1.8,4c-0.7,1.2-1.5,2.3-2.4,3.3l0,0
			c-1.6,1.8-3.5,3-5.6,3.7c-2.1,0.7-4.8,1.1-7.9,1.1l0,0c-3,0-5.5-0.3-7.3-0.9c-1.8-0.6-3.3-1.6-4.4-3l0,0c-0.8-1-1.4-2.2-1.8-3.7
			c-0.4-1.5-0.7-3.4-0.7-5.6l0,0c0-3.8,0.7-7.3,2.1-10.3c1.4-3,3.3-5.4,5.8-7.2l0,0c1.5-1.1,3.2-1.9,5.1-2.4
			C-44.3-88.9-42.1-89.2-39.6-89.2z M-45.5-58.9L-45.5-58.9c0.8,0,1.6-0.4,2.3-1.1c0.7-0.7,1.4-1.7,2-2.9c0.6-1.2,1.2-2.6,1.7-4.1
			c0.5-1.5,0.9-3.1,1.3-4.7c0.3-1.6,0.6-3.2,0.8-4.9c0.2-1.6,0.3-3.1,0.3-4.4l0,0c0-1.8-0.2-3-0.5-3.7c-0.4-0.7-0.9-1-1.6-1l0,0
			c-0.8,0-1.6,0.3-2.3,1c-0.7,0.7-1.4,1.6-2,2.8c-0.6,1.2-1.2,2.5-1.7,4c-0.5,1.5-0.9,3.1-1.3,4.7c-0.4,1.6-0.6,3.2-0.8,4.7
			c-0.2,1.6-0.3,3-0.3,4.3l0,0c0,2,0.2,3.3,0.7,4.1C-46.7-59.2-46.2-58.9-45.5-58.9z"/>
		<path class="st1" d="M-43.1-92.7L-43.1-92.7c3,0,5.4,0.4,7.3,1.1c1.9,0.8,3.3,1.9,4.4,3.5l0,0c0.7,1.1,1.2,2.3,1.6,3.7
			c0.4,1.4,0.6,2.9,0.6,4.7l0,0c0,1.5-0.1,3.1-0.4,4.6c-0.3,1.5-0.7,3-1.2,4.4c-0.5,1.4-1.1,2.7-1.8,4c-0.7,1.2-1.5,2.3-2.4,3.3l0,0
			c-1.6,1.8-3.5,3-5.6,3.7c-2.1,0.7-4.8,1.1-7.9,1.1l0,0c-3,0-5.5-0.3-7.3-0.9c-1.8-0.6-3.3-1.6-4.4-3l0,0c-0.8-1-1.4-2.2-1.8-3.7
			c-0.4-1.5-0.7-3.4-0.7-5.6l0,0c0-3.8,0.7-7.3,2.1-10.3c1.4-3,3.3-5.4,5.8-7.2l0,0c1.5-1.1,3.2-1.9,5.1-2.4
			C-47.8-92.4-45.6-92.7-43.1-92.7z M-49-62.4L-49-62.4c0.8,0,1.6-0.4,2.3-1.1c0.7-0.7,1.4-1.7,2-2.9c0.6-1.2,1.2-2.6,1.7-4.1
			c0.5-1.5,0.9-3.1,1.3-4.7c0.3-1.6,0.6-3.2,0.8-4.9c0.2-1.6,0.3-3.1,0.3-4.4l0,0c0-1.8-0.2-3-0.5-3.7c-0.4-0.7-0.9-1-1.6-1l0,0
			c-0.8,0-1.6,0.3-2.3,1c-0.7,0.7-1.4,1.6-2,2.8c-0.6,1.2-1.2,2.5-1.7,4c-0.5,1.5-0.9,3.1-1.3,4.7c-0.4,1.6-0.6,3.2-0.8,4.7
			c-0.2,1.6-0.3,3-0.3,4.3l0,0c0,2,0.2,3.3,0.7,4.1C-50.2-62.7-49.7-62.4-49-62.4z"/>
		
			<linearGradient id="SVGID_1_" gradientUnits="userSpaceOnUse" x1="-34.3626" y1="2.2816" x2="-34.3626" y2="3.2816" gradientTransform="matrix(199.45 0 0 -33.99 6804.1538 15.3354)">
			<stop  offset="0" style="stop-color:#C471F5"/>
			<stop  offset="1" style="stop-color:#FA70CD"/>
		</linearGradient>
		<path class="st2" d="M-46.6-96.2L-46.6-96.2c3,0,5.4,0.4,7.3,1.1c1.9,0.8,3.3,1.9,4.4,3.5l0,0c0.7,1.1,1.2,2.3,1.6,3.7
			c0.4,1.4,0.6,2.9,0.6,4.7l0,0c0,1.5-0.1,3.1-0.4,4.6c-0.3,1.5-0.7,3-1.2,4.4c-0.5,1.4-1.1,2.7-1.8,4c-0.7,1.2-1.5,2.3-2.4,3.3l0,0
			c-1.6,1.8-3.5,3-5.6,3.7c-2.1,0.7-4.8,1.1-7.9,1.1l0,0c-3,0-5.5-0.3-7.3-0.9s-3.3-1.6-4.4-3l0,0c-0.8-1-1.4-2.2-1.8-3.7
			c-0.4-1.5-0.7-3.4-0.7-5.6l0,0c0-3.8,0.7-7.3,2.1-10.3c1.4-3,3.3-5.4,5.9-7.2l0,0c1.5-1.1,3.2-1.9,5.1-2.4
			C-51.3-95.9-49.1-96.2-46.6-96.2z M-52.5-65.9L-52.5-65.9c0.8,0,1.6-0.4,2.3-1.1c0.7-0.7,1.4-1.7,2-2.9c0.6-1.2,1.2-2.6,1.7-4.1
			c0.5-1.5,0.9-3.1,1.3-4.7c0.3-1.6,0.6-3.2,0.8-4.9c0.2-1.6,0.3-3.1,0.3-4.4l0,0c0-1.8-0.2-3-0.5-3.7c-0.4-0.7-0.9-1-1.6-1l0,0
			c-0.8,0-1.6,0.3-2.3,1c-0.7,0.7-1.4,1.6-2,2.8c-0.6,1.2-1.2,2.5-1.7,4c-0.5,1.5-0.9,3.1-1.3,4.7c-0.4,1.6-0.6,3.2-0.8,4.7
			c-0.2,1.6-0.3,3-0.3,4.3l0,0c0,2,0.2,3.3,0.6,4.1C-53.7-66.2-53.2-65.9-52.5-65.9z"/>
	</g>
</g>
</svg>
